<svg width="415" height="388" viewBox="0 0 415 388" fill="none" xmlns="http://www.w3.org/2000/svg">
<g filter="url(#filter0_d_213_892)">
<path d="M145.99 30.328L119.706 33.7883C114.231 34.5092 110.376 39.5324 111.097 45.008L118.097 147.975C118.097 147.975 126.561 154.119 128.55 155.677C130.591 157.275 133.248 158.084 136.022 157.719L161.659 154.344C164.288 153.998 166.947 154.71 169.051 156.325L173.138 159.46C175.242 161.075 177.901 161.787 180.531 161.441L193.138 159.781C195.767 159.435 198.151 158.059 199.766 155.955L202.901 151.868C204.516 149.764 206.9 148.388 209.53 148.041L306.55 135.268C312.026 134.548 315.88 129.524 315.16 124.049L313.854 114.134C313.499 111.432 312.095 109.125 310.107 107.567C308.065 105.969 299.373 99.9027 299.373 99.9027L203.789 118.538C201.066 118.897 198.611 120.359 196.999 122.582L194.367 126.211C192.755 128.434 190.299 129.896 187.577 130.255L178.945 131.391C176.404 131.726 173.831 131.071 171.758 129.564L167.061 126.147C164.988 124.64 162.415 123.985 159.874 124.32L154.909 124.973C149.434 125.694 144.411 121.84 143.69 116.364L140.296 90.5867C139.575 85.1111 143.43 80.0879 148.905 79.367L153.721 78.7329C156.351 78.3868 159.01 79.0993 161.114 80.7139L164.64 83.419C166.744 85.0335 169.403 85.7461 172.033 85.3999L183.308 83.9154C185.845 83.5814 188.157 82.2878 189.769 80.3007L192.993 76.3269C194.605 74.3398 196.917 73.0462 199.454 72.7122L296.63 59.9186C302.106 59.1977 305.96 54.1745 305.24 48.6989L301.454 19.947C301.057 16.9317 299.356 14.408 296.992 12.8693C295.064 11.6137 285.851 4.85455 285.851 4.85455L193.976 24.0106C190.905 24.4148 188.195 26.2189 186.638 28.8957L184.585 32.4227C183.028 35.0995 180.318 36.9036 177.247 37.3078L165.251 38.8872C161.861 39.3334 158.478 38.017 156.282 35.3967L154.959 33.8184C152.762 31.1982 149.38 29.8817 145.99 30.328Z" fill="#DD544C"/>
<path d="M134.274 21.7841L107.991 25.2444C102.515 25.9653 98.6606 30.9885 99.3814 36.4641L113.087 140.566C113.808 146.041 118.831 149.896 124.306 149.175L149.943 145.8C152.573 145.454 155.232 146.166 157.336 147.781L161.422 150.916C163.526 152.531 166.186 153.243 168.815 152.897L181.422 151.238C184.052 150.891 186.436 149.515 188.05 147.411L191.186 143.324C192.801 141.22 195.185 139.844 197.814 139.498L294.835 126.724C300.311 126.004 304.165 120.98 303.444 115.505L302.139 105.59C301.418 100.115 296.395 96.2603 290.919 96.9812L192.073 109.994C189.351 110.353 186.896 111.815 185.284 114.038L182.651 117.667C181.039 119.89 178.584 121.352 175.861 121.711L167.23 122.847C164.688 123.182 162.115 122.528 160.042 121.02L155.346 117.603C153.273 116.096 150.7 115.441 148.158 115.776L143.194 116.43C137.718 117.15 132.695 113.296 131.974 107.82L128.58 82.0428C127.86 76.5672 131.714 71.544 137.19 70.8231L142.006 70.189C144.635 69.8428 147.295 70.5554 149.399 72.1699L152.924 74.8751C155.028 76.4896 157.688 77.2021 160.317 76.856L171.593 75.3715C174.13 75.0375 176.442 73.7439 178.054 71.7568L181.277 67.783C182.889 65.7959 185.201 64.5022 187.738 64.1682L284.915 51.3747C290.391 50.6538 294.245 45.6306 293.524 40.155L289.739 11.4031C289.018 5.92747 283.995 2.07301 278.519 2.79389L182.26 15.4666C179.19 15.8709 176.48 17.6749 174.922 20.3517L172.87 23.8787C171.312 26.5555 168.602 28.3596 165.532 28.7639L153.535 30.3432C150.145 30.7895 146.763 29.473 144.566 26.8528L143.243 25.2745C141.047 22.6543 137.664 21.3378 134.274 21.7841Z" fill="#FF7269"/>
<path d="M127.227 57.3006L124.23 57.6951L126.604 45.6459L130.316 45.1571L135.727 56.1815L132.731 56.576L128.885 48.3027L128.795 48.3145L127.227 57.3006ZM126.229 52.8129L132.493 51.9882L132.772 54.1063L126.508 54.931L126.229 52.8129ZM137.397 59.2627L135.83 47.3653L138.557 47.0064L138.752 48.4879L138.836 48.4768C138.915 48.1991 139.041 47.9246 139.215 47.6533C139.393 47.3815 139.634 47.1473 139.936 46.9508C140.242 46.7501 140.623 46.6198 141.077 46.56C141.678 46.4809 142.26 46.5647 142.824 46.8114C143.391 47.0577 143.879 47.4881 144.289 48.1028C144.698 48.7175 144.97 49.5337 145.104 50.5515C145.233 51.5316 145.185 52.3727 144.961 53.0747C144.74 53.7762 144.388 54.3268 143.906 54.7265C143.427 55.1257 142.869 55.3674 142.23 55.4514C141.795 55.5088 141.408 55.4871 141.07 55.3864C140.732 55.2857 140.439 55.1333 140.19 54.9292C139.946 54.7245 139.747 54.4965 139.596 54.2452L139.54 54.2526L140.151 58.9L137.397 59.2627ZM139.098 51.3364C139.16 51.8021 139.275 52.1995 139.444 52.5287C139.618 52.8574 139.835 53.1019 140.097 53.2623C140.362 53.4184 140.662 53.4745 140.996 53.4305C141.334 53.386 141.609 53.2543 141.821 53.0354C142.032 52.8127 142.175 52.5207 142.25 52.1594C142.328 51.7976 142.337 51.3838 142.275 50.9181C142.214 50.4524 142.099 50.0569 141.93 49.7315C141.765 49.4055 141.552 49.1643 141.29 49.0076C141.033 48.8505 140.733 48.7944 140.391 48.8394C140.053 48.8839 139.778 49.0138 139.566 49.2289C139.354 49.4441 139.206 49.731 139.123 50.0895C139.044 50.4476 139.036 50.8632 139.098 51.3364ZM147.116 54.6821L145.977 46.0295L148.653 45.6772L148.861 47.2545L148.951 47.2426C149.033 46.651 149.235 46.1928 149.555 45.8679C149.875 45.5393 150.271 45.3438 150.744 45.2815C150.872 45.2647 151.005 45.2568 151.142 45.2578C151.279 45.255 151.409 45.2629 151.529 45.2813L151.845 47.6755C151.707 47.6477 151.53 47.6348 151.312 47.6367C151.098 47.638 150.909 47.6496 150.744 47.6714C150.417 47.7144 150.132 47.8264 149.888 48.0075C149.648 48.1843 149.47 48.4122 149.354 48.6911C149.241 48.9658 149.207 49.2758 149.253 49.6213L149.871 54.3194L147.116 54.6821ZM157.41 53.4931C156.505 53.6123 155.7 53.5367 154.996 53.2665C154.295 52.992 153.725 52.5456 153.284 51.9273C152.847 51.3049 152.568 50.5336 152.446 49.6135C152.329 48.7197 152.402 47.9153 152.667 47.2003C152.932 46.4816 153.361 45.8941 153.954 45.4378C154.547 44.9777 155.279 44.6903 156.15 44.5756C156.766 44.4945 157.342 44.5161 157.878 44.6404C158.414 44.7647 158.892 44.9901 159.314 45.3167C159.735 45.6433 160.085 46.0691 160.364 46.5939C160.643 47.115 160.829 47.7305 160.923 48.4403L161.013 49.1275L153.493 50.1176L153.282 48.5177L158.239 47.8651C158.197 47.5727 158.093 47.3208 157.928 47.1095C157.763 46.8983 157.553 46.7443 157.3 46.6478C157.05 46.547 156.772 46.5166 156.468 46.5567C156.16 46.5972 155.893 46.7031 155.668 46.8741C155.441 47.0415 155.272 47.2528 155.161 47.5082C155.049 47.7598 155.008 48.0345 155.04 48.3322L155.254 49.9602C155.301 50.3132 155.411 50.6139 155.585 50.8622C155.759 51.1068 155.983 51.2855 156.257 51.3983C156.532 51.5112 156.846 51.5444 157.199 51.4979C157.443 51.4658 157.66 51.4028 157.85 51.309C158.04 51.2152 158.198 51.0932 158.324 50.9429C158.449 50.7927 158.535 50.6171 158.581 50.4162L161.12 50.1565C161.089 50.7374 160.923 51.2616 160.622 51.7292C160.324 52.1925 159.903 52.5785 159.359 52.8869C158.815 53.1917 158.165 53.3937 157.41 53.4931ZM165.007 47.3065L165.657 52.2412L162.902 52.6039L161.763 43.9513L164.382 43.6064L164.591 45.195L164.687 45.1824C164.809 44.6276 165.081 44.1696 165.504 43.8084C165.925 43.4434 166.456 43.2188 167.094 43.1348C167.702 43.0547 168.248 43.1223 168.731 43.3376C169.217 43.5487 169.617 43.882 169.929 44.3376C170.244 44.7889 170.443 45.3397 170.524 45.9899L171.25 51.5048L168.496 51.8674L167.841 46.8933C167.781 46.4121 167.61 46.0526 167.326 45.8149C167.047 45.5766 166.689 45.4862 166.253 45.5435C165.964 45.5816 165.717 45.6791 165.513 45.8359C165.311 45.9885 165.166 46.1891 165.076 46.4378C164.99 46.686 164.967 46.9755 165.007 47.3065ZM176.132 50.9881C175.494 51.0722 174.892 50.9833 174.327 50.7216C173.761 50.4598 173.279 50.019 172.88 49.399C172.481 48.7791 172.218 47.9791 172.089 46.9989C171.955 45.9812 172.006 45.1224 172.242 44.4227C172.479 43.723 172.837 43.181 173.318 42.7968C173.802 42.4122 174.346 42.18 174.951 42.1004C175.405 42.0406 175.804 42.0683 176.148 42.1835C176.491 42.2949 176.784 42.4589 177.027 42.6753C177.269 42.8917 177.462 43.1242 177.606 43.3727L177.662 43.3653L177.087 38.9996L179.842 38.6369L181.361 50.1737L178.634 50.5327L178.45 49.13L178.365 49.1411C178.284 49.4231 178.151 49.6946 177.968 49.9556C177.785 50.2166 177.541 50.4398 177.237 50.625C176.936 50.8097 176.568 50.9308 176.132 50.9881ZM176.808 48.7158C177.142 48.6718 177.415 48.5403 177.627 48.3214C177.838 48.0987 177.985 47.8062 178.067 47.4439C178.149 47.0816 178.16 46.6676 178.098 46.2019C178.036 45.7287 177.919 45.3297 177.746 45.0047C177.577 44.6793 177.36 44.4404 177.096 44.288C176.835 44.1352 176.537 44.0807 176.203 44.1247C175.861 44.1697 175.585 44.3017 175.373 44.5206C175.161 44.7395 175.015 45.028 174.936 45.3861C174.861 45.7437 174.854 46.1553 174.916 46.621C174.977 47.0866 175.092 47.4841 175.262 47.8133C175.431 48.1424 175.645 48.3875 175.903 48.5484C176.164 48.705 176.466 48.7608 176.808 48.7158ZM187.169 49.5753C186.264 49.6944 185.459 49.6189 184.755 49.3486C184.054 49.0741 183.483 48.6278 183.043 48.0095C182.606 47.387 182.326 46.6157 182.205 45.6956C182.088 44.8018 182.161 43.9975 182.426 43.2825C182.691 42.5638 183.12 41.9763 183.713 41.52C184.306 41.0599 185.038 40.7725 185.909 40.6578C186.525 40.5767 187.101 40.5983 187.637 40.7226C188.173 40.8469 188.651 41.0723 189.072 41.3989C189.494 41.7255 189.844 42.1512 190.123 42.6761C190.402 43.1972 190.588 43.8126 190.681 44.5224L190.772 45.2097L183.252 46.1997L183.041 44.5999L187.998 43.9473C187.956 43.6549 187.852 43.403 187.687 43.1917C187.521 42.9804 187.312 42.8265 187.059 42.73C186.808 42.6292 186.531 42.5988 186.227 42.6389C185.919 42.6794 185.652 42.7852 185.426 42.9563C185.2 43.1237 185.031 43.335 184.92 43.5904C184.808 43.842 184.767 44.1167 184.799 44.4143L185.013 46.0423C185.06 46.3954 185.17 46.696 185.344 46.9444C185.518 47.189 185.742 47.3677 186.016 47.4805C186.291 47.5934 186.605 47.6266 186.958 47.5801C187.202 47.5479 187.419 47.485 187.609 47.3912C187.799 47.2974 187.957 47.1753 188.082 47.0251C188.208 46.8749 188.294 46.6993 188.34 46.4984L190.879 46.2386C190.848 46.8196 190.682 47.3438 190.381 47.8114C190.083 48.2747 189.662 48.6606 189.118 48.9691C188.573 49.2738 187.924 49.4759 187.169 49.5753ZM192.661 48.686L191.522 40.0334L194.198 39.6812L194.405 41.2585L194.495 41.2466C194.578 40.655 194.779 40.1968 195.099 39.8719C195.419 39.5433 195.816 39.3478 196.289 39.2855C196.416 39.2687 196.549 39.2608 196.687 39.2617C196.824 39.259 196.953 39.2668 197.074 39.2853L197.389 41.6794C197.252 41.6516 197.074 41.6387 196.857 41.6406C196.643 41.642 196.453 41.6536 196.288 41.6753C195.961 41.7183 195.676 41.8304 195.433 42.0115C195.192 42.1883 195.014 42.4162 194.898 42.6951C194.785 42.9697 194.752 43.2798 194.797 43.6253L195.416 48.3234L192.661 48.686Z" fill="#C1261D"/>
<path d="M241.181 33.4815L253.165 22.1736L267.667 29.9946L255.683 41.3025L241.181 33.4815Z" fill="#DD544C"/>
<path d="M247.145 36.7143L257.16 27.0578L265.917 31.6324L255.684 41.2973L247.145 36.7143Z" fill="#ED645C"/>
</g>
<defs>
<filter id="filter0_d_213_892" x="-0.00508118" y="2.70721" width="414.551" height="385.12" filterUnits="userSpaceOnUse" color-interpolation-filters="sRGB">
<feFlood flood-opacity="0" result="BackgroundImageFix"/>
<feColorMatrix in="SourceAlpha" type="matrix" values="0 0 0 0 0 0 0 0 0 0 0 0 0 0 0 0 0 0 127 0" result="hardAlpha"/>
<feOffset dy="127"/>
<feGaussianBlur stdDeviation="49.65"/>
<feComposite in2="hardAlpha" operator="out"/>
<feColorMatrix type="matrix" values="0 0 0 0 0 0 0 0 0 0 0 0 0 0 0 0 0 0 0.25 0"/>
<feBlend mode="normal" in2="BackgroundImageFix" result="effect1_dropShadow_213_892"/>
<feBlend mode="normal" in="SourceGraphic" in2="effect1_dropShadow_213_892" result="shape"/>
</filter>
</defs>
</svg>
