<svg width="318" height="206" viewBox="0 0 318 206" fill="none" xmlns="http://www.w3.org/2000/svg">
<g filter="url(#filter0_d_215_996)">
<path d="M102.399 14.4196L88.9104 13.6446C83.3967 13.3278 78.6701 17.5408 78.3533 23.0545L71.7554 50.7216C71.7554 50.7216 77.4802 57.257 79.1421 59.1592C80.8478 61.1116 83.3069 62.4035 86.0997 62.5639L100.933 63.4162C103.581 63.5683 106.06 64.7661 107.825 66.7459L110.781 70.0631C112.546 72.043 115.025 73.2407 117.673 73.3928L129.027 74.0452C131.582 74.192 134.095 73.354 136.05 71.7038L139.961 68.4036C141.916 66.7533 144.43 65.9154 146.984 66.0621L237.849 71.2829C243.363 71.5997 248.09 67.3868 248.407 61.873L250.07 32.9208C250.231 30.128 249.229 27.5371 247.485 25.619C245.785 23.7502 239.008 16.2588 239.008 16.2588L150.719 17.1959C147.627 17.0183 144.627 18.2832 142.596 20.6211L139.92 23.7017C137.889 26.0396 134.889 27.3045 131.797 27.1269L119.717 26.4328C116.304 26.2367 113.227 24.3103 111.56 21.3252L110.556 19.5272C108.889 16.5421 105.812 14.6157 102.399 14.4196Z" fill="#50D62F"/>
<path d="M93.9308 4.91807L80.4425 4.14308C74.9288 3.82628 70.2022 8.03924 69.8854 13.553L68.2219 42.5052C67.9051 48.019 72.118 52.7456 77.6318 53.0624L92.4652 53.9147C95.113 54.0668 97.5919 55.2645 99.3566 57.2444L102.313 60.5616C104.078 62.5414 106.557 63.7392 109.205 63.8913L120.559 64.5437C123.114 64.6905 125.627 63.8525 127.582 62.2022L131.493 58.902C133.448 57.2518 135.962 56.4138 138.516 56.5606L229.382 61.7814C234.895 62.0982 239.622 57.8852 239.939 52.3715L241.602 23.4192C241.919 17.9055 237.706 13.1789 232.192 12.8621L142.251 7.69437C139.159 7.51672 136.159 8.78167 134.128 11.1196L131.452 14.2001C129.421 16.5381 126.421 17.803 123.329 17.6253L111.249 16.9313C107.836 16.7351 104.759 14.8087 103.092 11.8237L102.088 10.0256C100.421 7.0406 97.3442 5.11419 93.9308 4.91807Z" fill="#6EFF4A"/>
<path d="M91.1586 37.7302L88.1402 37.5688L92.6819 26.1586L96.4208 26.3585L99.7202 38.1879L96.7018 38.0265L94.4374 29.1885L94.3466 29.1836L91.1586 37.7302ZM91.0002 33.1356L97.3094 33.4729L97.1953 35.6062L90.8862 35.2689L91.0002 33.1356ZM111.896 39.0037C110.977 38.9546 110.198 38.7233 109.56 38.3099C108.926 37.8967 108.451 37.344 108.135 36.6519C107.82 35.956 107.686 35.1637 107.733 34.2748C107.781 33.3821 107.999 32.6086 108.386 31.9541C108.778 31.296 109.311 30.7954 109.986 30.4521C110.664 30.109 111.459 29.9619 112.371 30.0106C113.176 30.0537 113.87 30.2368 114.452 30.56C115.038 30.8834 115.485 31.3208 115.793 31.8721C116.105 32.4198 116.252 33.0516 116.233 33.7675L113.64 33.6289C113.611 33.1798 113.478 32.8218 113.242 32.555C113.01 32.2885 112.695 32.1446 112.298 32.1233C111.976 32.1061 111.69 32.1819 111.438 32.3505C111.186 32.5153 110.983 32.77 110.828 33.1145C110.677 33.4554 110.588 33.883 110.56 34.3975C110.533 34.9119 110.576 35.3504 110.689 35.713C110.806 36.0721 110.981 36.3489 111.214 36.5434C111.446 36.7341 111.723 36.838 112.045 36.8552C112.302 36.869 112.532 36.8263 112.734 36.7271C112.941 36.6281 113.114 36.4761 113.254 36.2712C113.394 36.0625 113.489 35.8058 113.54 35.5013L116.132 35.6399C116.068 36.3571 115.854 36.9754 115.493 37.4947C115.135 38.0143 114.649 38.4074 114.036 38.6743C113.426 38.9376 112.713 39.0474 111.896 39.0037ZM117.37 39.1314L117.836 30.4165L120.531 30.5606L120.446 32.1492L120.536 32.1541C120.726 31.5876 121.008 31.1741 121.382 30.9134C121.757 30.6489 122.182 30.5294 122.659 30.5549C122.788 30.5618 122.919 30.5783 123.055 30.6045C123.19 30.6269 123.315 30.6582 123.431 30.6986L123.302 33.1099C123.172 33.0574 123 33.0122 122.786 32.9742C122.575 32.9364 122.387 32.913 122.22 32.9041C121.891 32.8865 121.59 32.9444 121.318 33.0778C121.049 33.2076 120.832 33.3989 120.667 33.6518C120.506 33.9011 120.416 34.1998 120.397 34.5478L120.144 39.2797L117.37 39.1314ZM127.707 39.849C126.795 39.8002 126.018 39.5785 125.375 39.1838C124.737 38.7855 124.258 38.2421 123.938 37.5536C123.622 36.8615 123.489 36.0521 123.538 35.1254C123.587 34.2252 123.806 33.4479 124.198 32.7936C124.59 32.1356 125.119 31.6366 125.786 31.2967C126.453 30.953 127.225 30.8047 128.103 30.8516C128.723 30.8847 129.285 31.0115 129.789 31.2319C130.293 31.4523 130.723 31.7617 131.077 32.1599C131.431 32.5582 131.697 33.0409 131.876 33.608C132.054 34.1714 132.124 34.8105 132.086 35.5254L132.049 36.2176L124.475 35.8127L124.561 34.2014L129.554 34.4683C129.566 34.173 129.51 33.9064 129.386 33.6684C129.262 33.4304 129.084 33.2407 128.853 33.0994C128.626 32.9545 128.359 32.8738 128.052 32.8574C127.742 32.8408 127.46 32.896 127.207 33.0228C126.954 33.1458 126.749 33.3226 126.593 33.5532C126.436 33.7801 126.346 34.0427 126.323 34.3411L126.235 35.9808C126.216 36.3363 126.269 36.6521 126.395 36.9282C126.521 37.2004 126.708 37.4172 126.958 37.5785C127.207 37.7397 127.51 37.8299 127.865 37.8489C128.111 37.862 128.336 37.8399 128.54 37.7825C128.744 37.7252 128.922 37.6341 129.072 37.5094C129.223 37.3847 129.34 37.2278 129.422 37.0388L131.965 37.2487C131.829 37.8142 131.57 38.2992 131.188 38.7036C130.81 39.1044 130.325 39.4067 129.734 39.6102C129.143 39.81 128.467 39.8896 127.707 39.849ZM135.718 40.2601C135.162 40.2304 134.673 40.1113 134.252 39.903C133.834 39.691 133.511 39.3892 133.282 38.9976C133.056 38.6024 132.959 38.1174 132.99 37.5424C133.015 37.0583 133.122 36.6543 133.31 36.3306C133.498 36.0068 133.747 35.7489 134.057 35.5568C134.367 35.3648 134.72 35.2262 135.115 35.1411C135.511 35.0522 135.931 35.0007 136.375 34.9866C136.873 34.9677 137.275 34.9417 137.58 34.9087C137.885 34.8719 138.109 34.8099 138.25 34.7226C138.395 34.6318 138.472 34.4974 138.482 34.3197L138.483 34.2913C138.499 34 138.411 33.7696 138.219 33.6001C138.027 33.4305 137.761 33.3366 137.42 33.3184C137.053 33.2988 136.754 33.3624 136.522 33.5094C136.291 33.6563 136.137 33.8681 136.062 34.1448L133.508 33.9172C133.612 33.3917 133.832 32.9293 134.168 32.53C134.508 32.1271 134.961 31.8213 135.526 31.6125C136.095 31.4002 136.769 31.3148 137.548 31.3565C138.104 31.3862 138.613 31.4798 139.075 31.6373C139.537 31.7909 139.935 32.0019 140.27 32.2702C140.605 32.5346 140.857 32.8516 141.027 33.221C141.201 33.5907 141.275 34.0062 141.251 34.4677L140.934 40.391L138.324 40.2515L138.389 39.0373L138.321 39.0337C138.15 39.3204 137.938 39.5595 137.685 39.7508C137.436 39.9423 137.146 40.0804 136.815 40.1652C136.488 40.2501 136.122 40.2818 135.718 40.2601ZM136.672 38.4903C136.97 38.5063 137.242 38.4601 137.487 38.3518C137.735 38.2437 137.937 38.0876 138.092 37.8835C138.248 37.6756 138.333 37.4298 138.348 37.1461L138.392 36.3177C138.311 36.3551 138.212 36.3878 138.097 36.4157C137.985 36.4439 137.863 36.4696 137.729 36.4928C137.595 36.516 137.457 36.5352 137.316 36.5504C137.175 36.5656 137.039 36.5792 136.91 36.5912C136.646 36.6189 136.42 36.6713 136.23 36.7484C136.044 36.8257 135.898 36.9316 135.792 37.0663C135.69 37.1975 135.634 37.3576 135.624 37.5467C135.608 37.8342 135.699 38.059 135.895 38.2212C136.095 38.3836 136.354 38.4733 136.672 38.4903ZM142.631 40.4817L143.096 31.7669L145.791 31.911L145.706 33.4996L145.797 33.5045C145.987 32.938 146.269 32.5244 146.643 32.2638C147.018 31.9993 147.443 31.8798 147.92 31.9053C148.048 31.9121 148.18 31.9287 148.315 31.9549C148.451 31.9773 148.576 32.0086 148.692 32.0489L148.563 34.4603C148.433 34.4078 148.261 34.3626 148.046 34.3246C147.836 34.2868 147.648 34.2634 147.481 34.2545C147.152 34.2369 146.851 34.2948 146.579 34.4282C146.31 34.5579 146.093 34.7493 145.928 35.0022C145.766 35.2515 145.677 35.5502 145.658 35.8982L145.405 40.63L142.631 40.4817Z" fill="#20A500"/>
<path d="M210.381 23.1439L213.16 31.4483L221.691 33.4218L214.652 38.6305L215.412 47.3543L208.283 42.2691L200.22 45.6873L202.854 37.3357L197.112 30.7244L205.868 30.6481L210.381 23.1439Z" fill="#50D62F"/>
<path d="M212.362 30.8846L214.119 36.5223L216.95 36.9616L214.652 38.6305L215.412 47.3543L208.282 42.2691L205.772 43.3316L206.348 41.5899L201.932 36.2325L209.123 35.7258L212.362 30.8846Z" fill="#5FED3B"/>
</g>
<defs>
<filter id="filter0_d_215_996" x="0.305077" y="0.226341" width="317.681" height="205.735" filterUnits="userSpaceOnUse" color-interpolation-filters="sRGB">
<feFlood flood-opacity="0" result="BackgroundImageFix"/>
<feColorMatrix in="SourceAlpha" type="matrix" values="0 0 0 0 0 0 0 0 0 0 0 0 0 0 0 0 0 0 127 0" result="hardAlpha"/>
<feOffset dy="64"/>
<feGaussianBlur stdDeviation="33.95"/>
<feComposite in2="hardAlpha" operator="out"/>
<feColorMatrix type="matrix" values="0 0 0 0 0 0 0 0 0 0 0 0 0 0 0 0 0 0 0.25 0"/>
<feBlend mode="normal" in2="BackgroundImageFix" result="effect1_dropShadow_215_996"/>
<feBlend mode="normal" in="SourceGraphic" in2="effect1_dropShadow_215_996" result="shape"/>
</filter>
</defs>
</svg>
