<svg width="349" height="281" viewBox="0 0 349 281" fill="none" xmlns="http://www.w3.org/2000/svg">
<g filter="url(#filter0_d_213_893)">
<path d="M95.972 83.8664L102.668 92.1701C104.431 94.3819 106.636 96.6435 110.665 97.0984L126.321 98.8661C130.483 99.336 134.588 97.6023 137.153 94.2919L141.269 88.9807L95.972 83.8664Z" fill="#D68213"/>
<path d="M278.75 92.4268L282.228 61.6225C282.599 58.3376 281.607 55.213 279.701 52.8137L272.429 43.6903L69.0553 68.6905L76.1895 77.6075C78.0975 80.2935 81.0971 82.187 84.6287 82.5857L95.972 83.8664L141.269 88.9807L265.48 103.005C272.065 103.748 278.007 99.0123 278.75 92.4268Z" fill="#D68213"/>
<path d="M264.126 38.4369C270.717 39.1297 275.498 45.0344 274.806 51.6255L271.565 82.4557C270.872 89.0468 264.968 93.8284 258.377 93.1356L140.756 80.7732C136.599 80.3362 132.514 82.0982 129.979 85.4222C127.445 88.7462 123.36 90.5082 119.203 90.0712L103.521 88.423C99.4882 87.9991 95.9421 85.567 94.0941 81.9574L93.7619 81.3087C91.9139 77.6991 88.3678 75.267 84.3348 74.8431L77.3735 74.1114C70.7824 73.4187 66.0009 67.5139 66.6936 60.9228L70.4218 25.4515C70.7459 22.3674 72.2344 19.5069 74.9089 17.937C83.8517 12.6875 105.054 4.12141 137.662 7.54861C167.689 10.7046 187.299 21.8573 195.637 28.545C197.918 30.3744 200.589 31.7589 203.497 32.0646L264.126 38.4369Z" fill="#FCA735"/>
<path d="M126.302 46.9448L123.123 46.6107C123.115 46.2799 123.059 45.9762 122.956 45.6997C122.852 45.4231 122.702 45.1802 122.505 44.971C122.309 44.7618 122.067 44.5929 121.781 44.4643C121.499 44.3318 121.18 44.2469 120.824 44.2095C120.193 44.1431 119.632 44.2406 119.142 44.5018C118.656 44.7635 118.259 45.1739 117.952 45.7329C117.649 46.2924 117.454 46.9874 117.366 47.8181C117.275 48.6826 117.322 49.4203 117.506 50.0309C117.695 50.6378 117.999 51.1132 118.417 51.4571C118.84 51.7972 119.361 51.9997 119.979 52.0648C120.327 52.1013 120.647 52.09 120.941 52.0308C121.238 51.9721 121.504 51.8694 121.738 51.7225C121.976 51.572 122.179 51.3811 122.344 51.15C122.515 50.9151 122.644 50.6437 122.732 50.3359L125.908 50.6891C125.793 51.2596 125.566 51.8099 125.227 52.34C124.893 52.8704 124.46 53.3412 123.928 53.7524C123.397 54.1593 122.77 54.4619 122.046 54.6601C121.327 54.8587 120.52 54.911 119.626 54.817C118.448 54.6932 117.419 54.3238 116.541 53.7087C115.668 53.0899 115.015 52.2542 114.581 51.2017C114.148 50.1492 114.006 48.9089 114.156 47.4807C114.307 46.0482 114.707 44.8627 115.359 43.9243C116.01 42.9858 116.829 42.307 117.816 41.888C118.803 41.469 119.875 41.3202 121.032 41.4418C121.82 41.5247 122.537 41.7115 123.184 42.0022C123.831 42.2888 124.386 42.6685 124.851 43.1415C125.316 43.6103 125.675 44.1644 125.929 44.8039C126.183 45.4433 126.308 46.157 126.302 46.9448ZM131.769 56.0997C130.743 55.9919 129.884 55.6895 129.19 55.1924C128.502 54.6916 127.998 54.043 127.679 53.2468C127.364 52.4467 127.26 51.5466 127.365 50.5465C127.47 49.5421 127.76 48.6834 128.233 47.9704C128.711 47.2537 129.339 46.7241 130.116 46.3816C130.898 46.0353 131.802 45.916 132.828 46.0238C133.853 46.1316 134.71 46.436 135.399 46.9368C136.092 47.4339 136.596 48.0824 136.911 48.8825C137.23 49.6787 137.336 50.579 137.231 51.5834C137.126 52.5836 136.834 53.4421 136.356 54.1588C135.883 54.8717 135.255 55.4014 134.473 55.7477C133.696 56.0902 132.794 56.2075 131.769 56.0997ZM132.034 53.756C132.407 53.7952 132.735 53.7139 133.017 53.5123C133.3 53.3106 133.531 53.0134 133.709 52.6208C133.892 52.2287 134.011 51.7656 134.067 51.2316C134.124 50.6892 134.104 50.2072 134.007 49.7856C133.914 49.3645 133.75 49.0259 133.516 48.7699C133.281 48.5139 132.978 48.3663 132.605 48.3271C132.219 48.2865 131.881 48.3667 131.59 48.5675C131.303 48.7687 131.068 49.0654 130.886 49.4575C130.707 49.8501 130.59 50.3177 130.533 50.8601C130.476 51.3941 130.495 51.8717 130.588 52.2928C130.685 52.7143 130.853 53.0533 131.091 53.3098C131.334 53.5667 131.649 53.7154 132.034 53.756ZM142.007 51.3592L141.422 56.9279L138.313 56.6012L139.34 46.8368L142.296 47.1475L142.107 48.9402L142.215 48.9516C142.494 48.3767 142.912 47.9472 143.469 47.6629C144.027 47.3744 144.665 47.268 145.386 47.3438C146.072 47.4159 146.652 47.6332 147.123 47.9956C147.6 48.3542 147.949 48.8236 148.171 49.404C148.397 49.9805 148.47 50.6352 148.389 51.3679L147.735 57.5914L144.626 57.2647L145.216 51.6514C145.277 51.1094 145.184 50.6711 144.936 50.3366C144.693 50.0025 144.325 49.8096 143.834 49.758C143.508 49.7237 143.212 49.7654 142.947 49.8832C142.686 49.9973 142.474 50.1785 142.311 50.427C142.152 50.676 142.051 50.9867 142.007 51.3592ZM153.461 58.1933L153.649 56.4006L160.886 48.3944L154.567 47.7303L154.835 45.1747L165.134 46.2571L164.945 48.0498L157.709 56.056L164.028 56.7201L163.759 59.2757L153.461 58.1933ZM165.69 59.4786L166.716 49.7142L169.825 50.0409L168.799 59.8053L165.69 59.4786ZM168.393 48.74C167.957 48.6941 167.597 48.5106 167.314 48.1895C167.031 47.8641 166.911 47.4958 166.954 47.0848C166.997 46.6779 167.19 46.3469 167.534 46.0916C167.878 45.8322 168.269 45.7254 168.705 45.7713C169.146 45.8176 169.506 46.0032 169.784 46.3282C170.068 46.6493 170.188 47.0133 170.145 47.4202C170.102 47.8313 169.908 48.1665 169.564 48.426C169.224 48.6817 168.834 48.7863 168.393 48.74ZM170.392 63.675L171.804 50.2489L174.88 50.5723L174.705 52.2442L174.8 52.2542C174.958 51.9709 175.168 51.7038 175.43 51.4528C175.697 51.2023 176.021 51.0093 176.404 50.8738C176.791 50.7346 177.242 50.6919 177.754 50.7458C178.432 50.8171 179.047 51.0617 179.599 51.4796C180.155 51.8979 180.576 52.4971 180.863 53.2771C181.149 54.057 181.232 55.0212 181.111 56.1698C180.995 57.2759 180.722 58.1834 180.292 58.8923C179.866 59.6017 179.337 60.1117 178.704 60.4222C178.076 60.7333 177.401 60.8509 176.681 60.7752C176.189 60.7235 175.772 60.5982 175.429 60.3993C175.085 60.2004 174.804 59.9567 174.586 59.6681C174.372 59.3799 174.216 59.0785 174.116 58.7638L174.052 58.7571L173.501 64.0017L170.392 63.675ZM174.335 55.4511C174.28 55.9767 174.302 56.4417 174.401 56.8463C174.504 57.2514 174.678 57.576 174.922 57.8202C175.171 58.0606 175.484 58.2006 175.861 58.2403C176.243 58.2803 176.578 58.2085 176.867 58.0246C177.157 57.8366 177.39 57.5547 177.567 57.1791C177.747 56.8039 177.866 56.3535 177.921 55.828C177.976 55.3025 177.954 54.8395 177.855 54.4392C177.76 54.0393 177.59 53.7193 177.345 53.4794C177.104 53.2398 176.791 53.0998 176.406 53.0593C176.024 53.0192 175.689 53.0889 175.4 53.2685C175.112 53.4481 174.875 53.7232 174.69 54.0937C174.51 54.4647 174.392 54.9172 174.335 55.4511ZM181.843 64.8785L183.254 51.4524L186.331 51.7758L186.155 53.4477L186.251 53.4577C186.409 53.1744 186.619 52.9073 186.881 52.6563C187.147 52.4058 187.472 52.2128 187.855 52.0773C188.242 51.9381 188.692 51.8954 189.205 51.9493C189.883 52.0206 190.498 52.2652 191.05 52.6831C191.605 53.1014 192.027 53.7006 192.313 54.4806C192.6 55.2605 192.683 56.2248 192.562 57.3733C192.446 58.4794 192.172 59.3869 191.742 60.0958C191.316 60.8052 190.787 61.3152 190.155 61.6258C189.526 61.9368 188.852 62.0544 188.132 61.9787C187.64 61.927 187.222 61.8018 186.879 61.6028C186.536 61.4039 186.255 61.1602 186.037 60.8716C185.823 60.5834 185.666 60.282 185.566 59.9673L185.503 59.9606L184.952 65.2052L181.843 64.8785ZM185.786 56.6547C185.731 57.1802 185.753 57.6452 185.851 58.0498C185.955 58.4549 186.128 58.7795 186.373 59.0237C186.621 59.2641 186.935 59.4041 187.312 59.4438C187.693 59.4839 188.029 59.412 188.318 59.2281C188.607 59.0401 188.841 58.7582 189.017 58.3826C189.198 58.0074 189.316 57.557 189.371 57.0315C189.427 56.506 189.405 56.043 189.305 55.6427C189.21 55.2428 189.04 54.9228 188.796 54.6829C188.555 54.4433 188.242 54.3033 187.856 54.2628C187.475 54.2227 187.14 54.2925 186.851 54.4721C186.562 54.6517 186.325 54.9267 186.141 55.2972C185.96 55.6682 185.842 56.1207 185.786 56.6547ZM194.88 66.2487C194.507 66.2095 194.158 66.1428 193.834 66.0488C193.509 65.9589 193.233 65.8549 193.005 65.7367L193.929 63.5521C194.223 63.6859 194.493 63.7742 194.737 63.817C194.985 63.8602 195.203 63.8425 195.391 63.7637C195.584 63.6896 195.741 63.5369 195.864 63.3056L196.015 63.0259L193.608 52.5407L196.863 52.8828L197.93 60.0391L198.031 60.0498L200.588 53.2743L203.862 53.6184L199.057 63.9304C198.823 64.4457 198.521 64.8896 198.152 65.2622C197.787 65.6394 197.335 65.9176 196.798 66.0968C196.265 66.2764 195.626 66.3271 194.88 66.2487Z" fill="#774F1C"/>
<path d="M97.5073 52.3L100.37 34.8528" stroke="white" stroke-width="3" stroke-linecap="round"/>
<path d="M85.7666 37.0246L99.1372 34L97.3911 44.8009L85.7666 37.0246Z" fill="#32FF78"/>
</g>
<defs>
<filter id="filter0_d_213_893" x="0.82695" y="6.7619" width="347.278" height="274.12" filterUnits="userSpaceOnUse" color-interpolation-filters="sRGB">
<feFlood flood-opacity="0" result="BackgroundImageFix"/>
<feColorMatrix in="SourceAlpha" type="matrix" values="0 0 0 0 0 0 0 0 0 0 0 0 0 0 0 0 0 0 127 0" result="hardAlpha"/>
<feOffset dy="112"/>
<feGaussianBlur stdDeviation="32.9"/>
<feComposite in2="hardAlpha" operator="out"/>
<feColorMatrix type="matrix" values="0 0 0 0 0 0 0 0 0 0 0 0 0 0 0 0 0 0 0.25 0"/>
<feBlend mode="normal" in2="BackgroundImageFix" result="effect1_dropShadow_213_893"/>
<feBlend mode="normal" in="SourceGraphic" in2="effect1_dropShadow_213_893" result="shape"/>
</filter>
</defs>
</svg>
