<svg width="314" height="253" viewBox="0 0 314 253" fill="none" xmlns="http://www.w3.org/2000/svg">
<g filter="url(#filter0_d_213_891)">
<path d="M110.757 22.3507L98.2304 17.2896C93.1097 15.2207 87.2814 17.6946 85.2125 22.8153L70.0876 46.9034C70.0876 46.9034 73.4133 54.93 74.3771 57.2648C75.3663 59.6612 77.281 61.6736 79.8747 62.7216L93.6507 68.2874C96.1097 69.2809 98.0734 71.2106 99.1097 73.6519L100.846 77.7424C101.882 80.1837 103.846 82.1134 106.305 83.1069L116.85 87.3673C119.222 88.3258 121.872 88.3385 124.253 87.4027L129.015 85.5314C131.397 84.5957 134.046 84.6084 136.419 85.5668L220.807 119.662C225.927 121.731 231.756 119.257 233.825 114.136L244.688 87.2477C245.736 84.654 245.618 81.8787 244.582 79.5024C243.572 77.1872 239.556 67.9174 239.556 67.9174L155.633 40.4816C152.761 39.3215 149.514 39.5572 146.841 41.12L143.318 43.1791C140.644 44.7419 137.397 44.9777 134.525 43.8175L123.306 39.2847C120.136 38.004 117.84 35.1924 117.219 31.8303L116.845 29.8051C116.223 26.4431 113.927 23.6315 110.757 22.3507Z" fill="#14D19F"/>
<path d="M105.785 10.6347L93.2582 5.57355C88.1375 3.50466 82.3092 5.97863 80.2403 11.0993L69.3767 37.9877C67.3078 43.1083 69.7817 48.9367 74.9024 51.0056L88.6784 56.5714C91.1375 57.5649 93.1011 59.4946 94.1374 61.9359L95.8737 66.0263C96.91 68.4677 98.8736 70.3973 101.333 71.3909L111.878 75.6513C114.25 76.6098 116.899 76.6225 119.281 75.6867L124.043 73.8154C126.425 72.8797 129.074 72.8923 131.446 73.8508L215.834 107.946C220.955 110.015 226.783 107.541 228.852 102.42L239.716 75.5317C241.785 70.411 239.311 64.5826 234.19 62.5138L150.66 28.7656C147.789 27.6054 144.542 27.8412 141.868 29.404L138.345 31.4631C135.672 33.0259 132.425 33.2617 129.553 32.1015L118.334 27.5687C115.164 26.2879 112.868 23.4764 112.247 20.1143L111.872 18.0891C111.251 14.727 108.955 11.9155 105.785 10.6347Z" fill="#32FFC9"/>
<path d="M90.6738 39.7635L87.8712 38.6312L95.8705 29.3129L99.3422 30.7155L98.6233 42.9753L95.8207 41.843L96.5476 32.7485L96.4633 32.7145L90.6738 39.7635ZM92.0153 35.3663L97.8734 37.7331L97.0731 39.7139L91.215 37.3471L92.0153 35.3663ZM104.933 49.0545L109.429 37.9283L111.978 38.9585L111.419 40.344L111.498 40.3759C111.702 40.1726 111.947 39.9959 112.233 39.8456C112.522 39.6968 112.846 39.6114 113.206 39.5894C113.572 39.5654 113.967 39.6392 114.392 39.8109C114.954 40.0379 115.419 40.3976 115.788 40.8898C116.16 41.3835 116.374 41.9987 116.427 42.7353C116.481 43.4719 116.316 44.3161 115.931 45.2679C115.561 46.1846 115.105 46.8931 114.564 47.3934C114.026 47.8952 113.449 48.2013 112.832 48.3117C112.219 48.4235 111.614 48.3588 111.017 48.1176C110.61 47.953 110.284 47.7436 110.039 47.4896C109.795 47.2355 109.614 46.9584 109.499 46.6584C109.386 46.3598 109.326 46.0638 109.318 45.7704L109.265 45.7491L107.509 50.0953L104.933 49.0545ZM110.317 42.9937C110.141 43.4292 110.046 43.8319 110.032 44.2019C110.02 44.5732 110.089 44.8931 110.238 45.1617C110.392 45.4281 110.625 45.6244 110.938 45.7507C111.254 45.8784 111.558 45.8992 111.85 45.813C112.144 45.7232 112.412 45.5395 112.655 45.2618C112.901 44.9855 113.113 44.6297 113.289 44.1942C113.465 43.7587 113.559 43.3577 113.572 42.9913C113.589 42.6263 113.522 42.3113 113.372 42.0463C113.225 41.7827 112.992 41.5863 112.672 41.4572C112.356 41.3295 112.053 41.307 111.762 41.3897C111.471 41.4724 111.202 41.6494 110.953 41.9208C110.708 42.1935 110.496 42.5512 110.317 42.9937ZM115.648 49.8539L118.918 41.7622L121.42 42.7732L120.824 44.2482L120.908 44.2823C121.272 43.8081 121.673 43.5084 122.111 43.3833C122.551 43.2547 122.993 43.2798 123.435 43.4586C123.555 43.5068 123.674 43.5653 123.793 43.6339C123.914 43.699 124.022 43.7694 124.119 43.845L123.214 46.0839C123.108 45.9921 122.96 45.8935 122.77 45.788C122.583 45.684 122.412 45.6007 122.258 45.5383C121.952 45.4149 121.649 45.372 121.348 45.4096C121.051 45.4451 120.784 45.5557 120.546 45.7413C120.312 45.9248 120.13 46.1781 120 46.5012L118.225 50.8948L115.648 49.8539ZM125.188 53.8858C124.338 53.5424 123.678 53.0734 123.207 52.4788C122.741 51.8822 122.47 51.2045 122.392 50.446C122.32 49.6854 122.451 48.8907 122.786 48.0618C123.122 47.2295 123.58 46.5667 124.159 46.0735C124.743 45.5782 125.409 45.2795 126.157 45.1773C126.91 45.073 127.712 45.1925 128.561 45.5359C129.411 45.8793 130.069 46.3493 130.535 46.946C131.005 47.5406 131.277 48.2182 131.35 48.9788C131.427 49.7374 131.298 50.5328 130.962 51.3652C130.627 52.194 130.167 52.8561 129.583 53.3513C129.004 53.8445 128.338 54.1433 127.585 54.2476C126.837 54.3498 126.038 54.2292 125.188 53.8858ZM125.989 51.9483C126.298 52.0731 126.598 52.084 126.889 51.9809C127.18 51.8778 127.45 51.6804 127.698 51.3887C127.95 51.0983 128.166 50.7319 128.345 50.2894C128.526 49.8398 128.627 49.4231 128.647 49.0391C128.671 48.6565 128.614 48.3271 128.477 48.0509C128.339 47.7747 128.116 47.5742 127.807 47.4493C127.487 47.3202 127.178 47.3058 126.881 47.406C126.586 47.5077 126.313 47.7037 126.061 47.994C125.812 48.2858 125.597 48.6564 125.415 49.106C125.237 49.5485 125.135 49.961 125.112 50.3436C125.091 50.7276 125.152 51.0584 125.293 51.336C125.437 51.6151 125.669 51.8191 125.989 51.9483ZM133.135 60.6449C132.366 60.3341 131.751 59.9609 131.289 59.5253C130.828 59.0897 130.516 58.6227 130.354 58.1241C130.192 57.6255 130.174 57.1282 130.301 56.632L132.796 57.4805C132.775 57.664 132.801 57.8421 132.874 58.0147C132.951 58.1887 133.076 58.3495 133.249 58.4971C133.426 58.6461 133.651 58.776 133.925 58.8866C134.357 59.0612 134.756 59.0998 135.122 59.0026C135.49 58.9104 135.78 58.6043 135.99 58.0845L136.564 56.6622L136.475 56.626C136.272 56.8342 136.027 56.9948 135.741 57.1077C135.454 57.2207 135.134 57.2709 134.779 57.2584C134.428 57.2474 134.054 57.1617 133.657 57.0013C133.067 56.7629 132.582 56.4074 132.201 55.9348C131.825 55.4602 131.606 54.8735 131.545 54.1748C131.489 53.474 131.647 52.6653 132.017 51.7487C132.399 50.8039 132.864 50.087 133.413 49.5979C133.963 49.1054 134.542 48.8102 135.15 48.7124C135.76 48.616 136.349 48.6821 136.914 48.9105C137.339 49.0822 137.673 49.3029 137.915 49.5724C138.162 49.8398 138.338 50.1274 138.443 50.4352C138.547 50.7429 138.601 51.0403 138.603 51.3273L138.677 51.3571L139.237 49.9716L141.802 51.0081L138.52 59.1315C138.244 59.8164 137.838 60.3246 137.304 60.6561C136.769 60.9877 136.144 61.1498 135.428 61.1424C134.711 61.1385 133.946 60.9726 133.135 60.6449ZM135.311 55.4877C135.623 55.614 135.924 55.6393 136.211 55.5636C136.499 55.488 136.766 55.3197 137.01 55.0589C137.254 54.7981 137.463 54.4517 137.638 54.0197C137.815 53.5807 137.908 53.179 137.917 52.8147C137.93 52.4483 137.859 52.1336 137.704 51.8707C137.552 51.6092 137.32 51.4153 137.007 51.289C136.687 51.1599 136.382 51.1385 136.089 51.2247C135.797 51.3109 135.529 51.4904 135.283 51.7631C135.043 52.0338 134.836 52.3851 134.662 52.8171C134.487 53.2491 134.395 53.6431 134.386 53.9989C134.377 54.3548 134.448 54.6593 134.599 54.9123C134.754 55.1668 134.991 55.3586 135.311 55.4877ZM140.175 59.7635L143.445 51.6717L145.947 52.6827L145.351 54.1578L145.435 54.1918C145.799 53.7176 146.199 53.4179 146.638 53.2928C147.078 53.1642 147.519 53.1893 147.962 53.3681C148.081 53.4163 148.201 53.4748 148.32 53.5434C148.441 53.6086 148.549 53.6789 148.645 53.7545L147.741 55.9935C147.635 55.9016 147.487 55.803 147.297 55.6975C147.11 55.5935 146.939 55.5103 146.785 55.4478C146.479 55.3244 146.176 55.2815 145.875 55.3191C145.578 55.3547 145.311 55.4652 145.073 55.6508C144.839 55.8343 144.657 56.0876 144.527 56.4107L142.751 60.8043L140.175 59.7635ZM148.341 63.2219C147.825 63.0133 147.401 62.7421 147.07 62.4082C146.744 62.0723 146.536 61.6819 146.447 61.237C146.362 60.7901 146.427 60.2997 146.643 59.7658C146.824 59.3163 147.056 58.9689 147.339 58.7237C147.622 58.4785 147.942 58.3154 148.297 58.2343C148.653 58.1532 149.031 58.1366 149.432 58.1844C149.835 58.2287 150.249 58.3163 150.674 58.4472C151.152 58.591 151.54 58.6968 151.839 58.7646C152.14 58.829 152.371 58.8428 152.533 58.8061C152.7 58.7673 152.817 58.6653 152.884 58.5002L152.894 58.4739C153.004 58.2035 152.995 57.9569 152.868 57.7342C152.742 57.5115 152.52 57.3363 152.204 57.2086C151.864 57.0709 151.56 57.034 151.293 57.0978C151.026 57.1616 150.812 57.3121 150.651 57.5493L148.309 56.505C148.578 56.0417 148.936 55.6758 149.384 55.4072C149.837 55.1366 150.364 54.9942 150.966 54.9801C151.573 54.964 152.238 55.102 152.962 55.3943C153.478 55.6029 153.929 55.8566 154.315 56.1555C154.702 56.4509 155.011 56.7797 155.24 57.1421C155.471 57.5009 155.607 57.8826 155.648 58.2872C155.692 58.6932 155.628 59.1105 155.454 59.5389L153.232 65.0388L150.809 64.0597L151.265 62.9324L151.201 62.9068C150.947 63.1226 150.669 63.2799 150.367 63.3787C150.069 63.479 149.75 63.5155 149.41 63.4883C149.073 63.4625 148.717 63.3737 148.341 63.2219ZM149.817 61.8575C150.095 61.9696 150.367 62.0141 150.634 61.9911C150.904 61.9696 151.145 61.8874 151.358 61.7446C151.573 61.5984 151.733 61.3935 151.839 61.1301L152.15 60.361C152.061 60.3698 151.957 60.3688 151.839 60.3578C151.724 60.3483 151.6 60.3327 151.466 60.3111C151.331 60.2896 151.195 60.2631 151.057 60.2317C150.918 60.2002 150.786 60.1692 150.659 60.1385C150.401 60.0792 150.17 60.0552 149.965 60.0664C149.764 60.0791 149.591 60.132 149.448 60.225C149.309 60.316 149.204 60.4493 149.133 60.6249C149.025 60.8918 149.037 61.1338 149.17 61.3509C149.307 61.5694 149.522 61.7383 149.817 61.8575ZM154.808 65.6752L158.077 57.5834L160.526 58.5732L159.926 60.0588L160.016 60.0949C160.383 59.6714 160.824 59.3982 161.34 59.2755C161.855 59.1528 162.39 59.2035 162.945 59.4277C163.507 59.6548 163.93 59.9932 164.214 60.4429C164.498 60.8927 164.596 61.3819 164.509 61.9105L164.594 61.9446C164.939 61.5244 165.39 61.2591 165.945 61.1484C166.502 61.0343 167.079 61.0978 167.676 61.3391C168.441 61.6484 168.964 62.1454 169.243 62.8301C169.523 63.5112 169.491 64.2785 169.146 65.132L166.945 70.5792L164.369 69.5383L166.332 64.6812C166.495 64.2773 166.515 63.9281 166.393 63.6337C166.273 63.3357 166.047 63.1201 165.717 62.9867C165.362 62.8434 165.036 62.8464 164.739 62.9959C164.446 63.1433 164.222 63.4102 164.066 63.7965L162.114 68.6274L159.638 67.627L161.611 62.7435C161.763 62.3677 161.781 62.0298 161.666 61.7297C161.55 61.4297 161.325 61.2123 160.992 61.0775C160.767 60.9866 160.546 60.9609 160.33 61.0003C160.116 61.0361 159.919 61.1325 159.742 61.2894C159.567 61.4478 159.426 61.6604 159.318 61.9273L157.384 66.716L154.808 65.6752ZM170.767 72.2827C170.251 72.0741 169.827 71.8029 169.496 71.469C169.171 71.1331 168.963 70.7427 168.873 70.2978C168.788 69.8508 168.853 69.3605 169.069 68.8266C169.25 68.3771 169.483 68.0297 169.766 67.7845C170.049 67.5393 170.368 67.3762 170.723 67.2951C171.079 67.214 171.457 67.1974 171.859 67.2452C172.262 67.2895 172.676 67.3771 173.101 67.508C173.578 67.6518 173.966 67.7576 174.265 67.8254C174.566 67.8898 174.798 67.9036 174.96 67.8669C175.126 67.828 175.243 67.7261 175.31 67.561L175.321 67.5347C175.43 67.2643 175.421 67.0177 175.295 66.795C175.168 66.5723 174.947 66.3971 174.631 66.2694C174.29 66.1317 173.986 66.0948 173.719 66.1586C173.453 66.2224 173.239 66.3729 173.077 66.6101L170.736 65.5658C171.004 65.1025 171.363 64.7366 171.81 64.468C172.263 64.1974 172.79 64.055 173.392 64.0409C173.999 64.0248 174.665 64.1628 175.388 64.4551C175.904 64.6637 176.356 64.9174 176.741 65.2163C177.129 65.5117 177.437 65.8405 177.666 66.2029C177.897 66.5617 178.033 66.9434 178.074 67.348C178.118 67.754 178.054 68.1713 177.881 68.5997L175.659 74.0996L173.235 73.1205L173.691 71.9932L173.628 71.9676C173.373 72.1834 173.095 72.3407 172.793 72.4395C172.496 72.5398 172.176 72.5763 171.836 72.5491C171.499 72.5233 171.143 72.4345 170.767 72.2827ZM172.244 70.9183C172.521 71.0304 172.793 71.0749 173.06 71.0519C173.33 71.0304 173.572 70.9482 173.785 70.8054C173.999 70.6592 174.159 70.4543 174.266 70.1909L174.576 69.4218C174.487 69.4306 174.383 69.4296 174.265 69.4186C174.151 69.4091 174.026 69.3935 173.892 69.3719C173.758 69.3504 173.621 69.3239 173.483 69.2924C173.344 69.261 173.212 69.23 173.085 69.1993C172.827 69.14 172.596 69.116 172.391 69.1272C172.19 69.1399 172.018 69.1928 171.874 69.2858C171.735 69.3768 171.63 69.5101 171.559 69.6857C171.451 69.9526 171.464 70.1946 171.597 70.4117C171.733 70.6302 171.949 70.7991 172.244 70.9183ZM177.234 74.736L180.503 66.6442L183.005 67.6552L182.409 69.1303L182.494 69.1644C182.857 68.6901 183.258 68.3905 183.696 68.2654C184.137 68.1368 184.578 68.1619 185.02 68.3407C185.14 68.3889 185.259 68.4473 185.378 68.516C185.499 68.5811 185.608 68.6515 185.704 68.7271L184.799 70.966C184.693 70.8742 184.545 70.7756 184.355 70.6701C184.168 70.5661 183.998 70.4828 183.843 70.4204C183.538 70.2969 183.234 70.254 182.933 70.2917C182.637 70.3272 182.369 70.4378 182.131 70.6234C181.898 70.8068 181.716 71.0601 181.585 71.3832L179.81 75.7768L177.234 74.736Z" fill="#099B75"/>
<path fill-rule="evenodd" clip-rule="evenodd" d="M221.491 79.389C222.319 77.3407 221.329 75.0094 219.281 74.1819L217.177 73.3317L215.678 77.0404L216.73 77.4655C217.435 77.7503 217.579 78.3936 217.296 79.0942C216.694 80.5852 216.555 81.6849 217.161 82.9969C215.9 83.306 215.082 84.5741 214.482 86.0605C214.167 86.8064 213.468 87.2531 212.635 86.9166L211.821 86.5877L210.335 90.266L212.439 91.1162C214.487 91.9437 216.819 90.9541 217.646 88.9058L218.249 87.4138C218.475 86.8533 218.895 86.5519 219.386 86.3687C219.585 86.2945 219.777 86.2484 219.936 86.2205C220.453 86.2256 220.708 86.2777 221.251 86.4908L222.552 83.2715C222.063 83.0373 221.789 82.873 221.38 82.49C221.286 82.3731 221.178 82.2199 221.085 82.0411C220.877 81.6371 220.771 81.1724 221.005 80.5926L221.491 79.389Z" fill="#15D09E"/>
<path d="M221.254 79.9753L221.004 80.5928C220.77 81.1726 220.876 81.6373 221.085 82.0413C221.177 82.2201 221.285 82.3733 221.379 82.4901C221.788 82.8731 222.062 83.0375 222.551 83.2717L221.25 86.491C220.707 86.2778 220.452 86.2258 219.935 86.2207C219.777 86.2486 219.585 86.2946 219.386 86.3689C218.894 86.5521 218.475 86.8534 218.248 87.414L217.645 88.906C216.888 90.7804 214.871 91.7682 212.965 91.2883L213.502 89.9595L214.316 90.2884C215.149 90.6249 215.848 90.1782 216.162 89.4323C216.763 87.9459 217.581 86.6778 218.842 86.3687C218.236 85.0567 218.375 83.957 218.977 82.466C219.26 81.7654 218.973 81.1881 218.684 80.4275L218.106 78.5633L218.857 76.7035L220.544 77.3851C221.102 77.6104 221.911 78.3473 221.254 79.9753Z" fill="#18E6AF"/>
<path fill-rule="evenodd" clip-rule="evenodd" d="M203.637 72.5335C204.465 70.4852 206.796 69.4956 208.844 70.3232L210.948 71.1734L209.45 74.8821L208.398 74.457C207.693 74.1723 207.143 74.535 206.859 75.2356C206.257 76.7265 205.593 77.6137 204.246 78.137C204.938 79.2348 204.645 80.7154 204.045 82.2019C203.753 82.9566 203.946 83.7639 204.779 84.1004L205.593 84.4294L204.107 88.1077L202.002 87.2575C199.954 86.4299 198.964 84.0986 199.792 82.0503L200.395 80.5583C200.621 79.9978 200.529 79.4894 200.303 79.0163C200.211 78.8246 200.105 78.6581 200.01 78.5281C199.635 78.1727 199.415 78.0328 198.876 77.8087L200.177 74.5894C200.692 74.7608 201.002 74.8326 201.563 74.8412C201.712 74.8229 201.896 74.7877 202.087 74.7232C202.517 74.5775 202.916 74.3169 203.151 73.7371L203.637 72.5335Z" fill="#15D09E"/>
<path d="M200.771 79.6142C200.787 79.5742 201.103 78.7922 200.771 79.6142L201.692 77.3341C202.207 77.5055 202.518 77.5773 203.078 77.5859C203.227 77.5676 203.412 77.5324 203.602 77.4679C204.033 77.3222 204.432 77.0616 204.666 76.4818L205.153 75.2782C205.959 73.2809 207.695 72.3386 209.255 72.8234L210.137 73.18L209.45 74.8823L208.398 74.4572C207.693 74.1724 207.142 74.5351 206.859 75.2357C206.257 76.7266 205.592 77.6139 204.246 78.1372C204.937 79.235 204.645 80.7156 204.045 82.202C203.752 82.9567 203.997 83.2397 204.164 83.5981L205.165 85.4881L204.106 88.1078L202.002 87.2576C201.647 87.1142 201.324 86.9256 201.036 86.7011C200.971 86.0733 201.055 85.4209 201.307 84.795L201.91 83.303C202.137 82.7424 202.044 82.2341 201.818 81.761C201.726 81.5693 201.912 81.891 201.818 81.761L200.771 79.6142Z" fill="#18E6AF"/>
</g>
<defs>
<filter id="filter0_d_213_891" x="0.746483" y="0.942741" width="312.573" height="251.35" filterUnits="userSpaceOnUse" color-interpolation-filters="sRGB">
<feFlood flood-opacity="0" result="BackgroundImageFix"/>
<feColorMatrix in="SourceAlpha" type="matrix" values="0 0 0 0 0 0 0 0 0 0 0 0 0 0 0 0 0 0 127 0" result="hardAlpha"/>
<feOffset dy="64"/>
<feGaussianBlur stdDeviation="33.95"/>
<feComposite in2="hardAlpha" operator="out"/>
<feColorMatrix type="matrix" values="0 0 0 0 0 0 0 0 0 0 0 0 0 0 0 0 0 0 0.25 0"/>
<feBlend mode="normal" in2="BackgroundImageFix" result="effect1_dropShadow_213_891"/>
<feBlend mode="normal" in="SourceGraphic" in2="effect1_dropShadow_213_891" result="shape"/>
</filter>
</defs>
</svg>
