<svg width="341" height="267" viewBox="0 0 341 267" fill="none" xmlns="http://www.w3.org/2000/svg">
<g filter="url(#filter0_d_213_894)">
<path d="M109.514 92.9696L96.9874 98.0307C91.8667 100.1 89.3928 105.928 91.4617 111.049L97.3147 138.883C97.3147 138.883 105.283 142.346 107.598 143.356C109.974 144.393 112.749 144.511 115.343 143.463L129.119 137.897C131.578 136.903 134.331 136.927 136.773 137.964L140.863 139.7C143.304 140.736 146.057 140.76 148.516 139.767L159.061 135.506C161.434 134.548 163.348 132.716 164.411 130.389L166.537 125.735C167.6 123.407 169.515 121.576 171.887 120.617L256.275 86.5225C261.396 84.4537 263.87 78.6253 261.801 73.5046L250.937 46.6163C249.889 44.0226 247.877 42.1079 245.481 41.1187C243.146 40.1549 233.817 36.2766 233.817 36.2766L154.39 74.8387C151.518 75.9988 149.346 78.424 148.509 81.4055L147.405 85.334C146.567 88.3155 144.395 90.7407 141.524 91.9008L130.305 96.4336C127.135 97.7144 123.53 97.2868 120.747 95.3L119.071 94.1032C116.289 92.1164 112.684 91.6888 109.514 92.9696Z" fill="#D68213"/>
<path d="M97.7986 87.9964L85.2718 93.0575C80.1511 95.1264 77.6772 100.955 79.7461 106.075L90.6097 132.964C92.6786 138.084 98.5069 140.558 103.628 138.49L117.404 132.924C119.863 131.93 122.616 131.954 125.057 132.99L129.147 134.727C131.589 135.763 134.342 135.787 136.801 134.794L147.346 130.533C149.718 129.575 151.633 127.743 152.696 125.416L154.822 120.762C155.885 118.434 157.799 116.603 160.172 115.644L244.56 81.5493C249.68 79.4804 252.154 73.6521 250.085 68.5314L239.222 41.6431C237.153 36.5224 231.324 34.0484 226.204 36.1173L142.674 69.8655C139.803 71.0256 137.631 73.4508 136.793 76.4323L135.689 80.3608C134.851 83.3423 132.68 85.7674 129.808 86.9276L118.589 91.4604C115.419 92.7412 111.814 92.3136 109.032 90.3268L107.356 89.13C104.573 87.1432 100.969 86.7156 97.7986 87.9964Z" fill="#FCA735"/>
<path d="M105.675 119.561L103.223 120.552L102.594 109.825L105.631 108.597L112.631 116.751L110.178 117.742L105.108 111.576L105.034 111.605L105.675 119.561ZM103.846 115.978L108.972 113.907L109.673 115.64L104.547 117.711L103.846 115.978ZM117.572 106.519L118.242 108.178L113.776 109.983L113.105 108.323L117.572 106.519ZM113.355 106.249L115.61 105.338L118.256 111.888C118.312 112.027 118.379 112.13 118.457 112.199C118.536 112.263 118.626 112.296 118.727 112.298C118.827 112.297 118.937 112.273 119.057 112.224C119.143 112.19 119.23 112.145 119.319 112.091C119.41 112.033 119.478 111.988 119.522 111.956L120.521 113.445C120.425 113.52 120.289 113.619 120.111 113.745C119.936 113.869 119.716 113.992 119.45 114.114C118.931 114.352 118.453 114.474 118.016 114.479C117.58 114.48 117.198 114.362 116.871 114.126C116.546 113.889 116.29 113.53 116.103 113.048L113.355 106.249ZM121.583 113.134L118.722 106.054L120.911 105.169L121.433 106.46L121.507 106.43C121.447 105.911 121.517 105.479 121.717 105.133C121.916 104.785 122.209 104.532 122.596 104.376C122.701 104.334 122.811 104.298 122.928 104.269C123.044 104.236 123.155 104.215 123.261 104.204L124.053 106.163C123.93 106.169 123.777 106.197 123.593 106.247C123.413 106.295 123.255 106.346 123.119 106.401C122.852 106.509 122.635 106.666 122.468 106.873C122.303 107.075 122.202 107.307 122.165 107.569C122.13 107.826 122.169 108.096 122.283 108.379L123.837 112.224L121.583 113.134ZM128.824 110.348C128.372 110.53 127.941 110.617 127.53 110.608C127.12 110.595 126.752 110.475 126.425 110.25C126.1 110.02 125.843 109.672 125.655 109.205C125.496 108.811 125.431 108.452 125.46 108.125C125.489 107.799 125.59 107.502 125.765 107.235C125.939 106.968 126.168 106.728 126.449 106.514C126.73 106.297 127.044 106.1 127.391 105.924C127.778 105.725 128.087 105.555 128.317 105.416C128.545 105.274 128.699 105.142 128.779 105.02C128.86 104.894 128.872 104.759 128.814 104.615L128.804 104.592C128.709 104.355 128.553 104.205 128.338 104.142C128.123 104.079 127.877 104.103 127.601 104.215C127.303 104.335 127.089 104.496 126.96 104.699C126.831 104.901 126.788 105.126 126.83 105.373L124.722 106.139C124.609 105.684 124.612 105.236 124.731 104.795C124.851 104.35 125.097 103.94 125.467 103.565C125.839 103.185 126.342 102.868 126.975 102.612C127.427 102.43 127.865 102.315 128.289 102.269C128.713 102.219 129.107 102.239 129.471 102.328C129.835 102.413 130.152 102.571 130.424 102.801C130.698 103.029 130.912 103.331 131.063 103.706L133.007 108.518L130.887 109.375L130.488 108.389L130.433 108.411C130.404 108.701 130.325 108.969 130.195 109.215C130.068 109.459 129.89 109.676 129.659 109.866C129.431 110.054 129.153 110.215 128.824 110.348ZM128.924 108.592C129.167 108.493 129.365 108.356 129.519 108.18C129.676 108.002 129.778 107.803 129.826 107.584C129.872 107.362 129.848 107.135 129.755 106.905L129.483 106.232C129.432 106.292 129.366 106.354 129.285 106.419C129.207 106.483 129.119 106.548 129.022 106.616C128.924 106.684 128.822 106.751 128.716 106.815C128.61 106.879 128.507 106.94 128.409 106.998C128.211 107.117 128.051 107.243 127.929 107.374C127.81 107.505 127.733 107.643 127.699 107.789C127.667 107.931 127.682 108.078 127.744 108.232C127.838 108.465 127.993 108.61 128.209 108.666C128.428 108.721 128.666 108.696 128.924 108.592ZM134.386 107.961L130.571 98.521L132.826 97.6103L134.269 101.183L134.315 101.164C134.32 100.912 134.367 100.652 134.455 100.383C134.547 100.114 134.699 99.8632 134.913 99.6304C135.128 99.3933 135.421 99.1997 135.793 99.0494C136.285 98.8508 136.796 98.7942 137.328 98.8798C137.862 98.9641 138.37 99.2218 138.852 99.6528C139.333 100.084 139.742 100.716 140.079 101.548C140.403 102.351 140.547 103.074 140.51 103.717C140.477 104.36 140.3 104.904 139.979 105.348C139.661 105.791 139.241 106.118 138.718 106.329C138.362 106.473 138.029 106.539 137.721 106.528C137.412 106.517 137.131 106.452 136.875 106.333C136.623 106.214 136.405 106.064 136.222 105.884L136.153 105.912L136.617 107.06L134.386 107.961ZM135.163 103.529C135.317 103.91 135.502 104.222 135.718 104.463C135.936 104.704 136.174 104.863 136.431 104.942C136.69 105.016 136.956 104.998 137.23 104.887C137.506 104.776 137.71 104.604 137.842 104.372C137.972 104.137 138.029 103.858 138.013 103.536C138 103.212 137.917 102.86 137.763 102.479C137.609 102.098 137.425 101.788 137.211 101.549C136.999 101.309 136.766 101.152 136.51 101.076C136.257 100.999 135.991 101.018 135.712 101.131C135.435 101.242 135.23 101.413 135.098 101.641C134.965 101.87 134.903 102.146 134.911 102.467C134.923 102.788 135.007 103.142 135.163 103.529ZM144.733 103.92C144.281 104.103 143.85 104.189 143.439 104.18C143.029 104.167 142.661 104.048 142.334 103.822C142.009 103.593 141.752 103.244 141.563 102.777C141.404 102.384 141.339 102.024 141.368 101.698C141.398 101.371 141.499 101.075 141.674 100.808C141.848 100.541 142.076 100.3 142.358 100.086C142.639 99.8691 142.952 99.6726 143.3 99.4966C143.687 99.297 143.996 99.1276 144.226 98.9884C144.454 98.846 144.608 98.7141 144.688 98.5926C144.769 98.4667 144.781 98.3316 144.722 98.1871L144.713 98.1641C144.617 97.9275 144.462 97.7775 144.247 97.7143C144.032 97.651 143.786 97.6752 143.51 97.787C143.212 97.9074 142.998 98.0688 142.869 98.2711C142.74 98.4734 142.696 98.6982 142.739 98.9455L140.63 99.7117C140.518 99.2566 140.521 98.8086 140.64 98.3675C140.76 97.9221 141.005 97.5119 141.376 97.1371C141.748 96.7579 142.251 96.4404 142.884 96.1846C143.335 96.0021 143.774 95.8877 144.198 95.8413C144.621 95.7918 145.015 95.8113 145.38 95.8999C145.743 95.9855 146.061 96.1431 146.333 96.373C146.607 96.6016 146.82 96.9034 146.972 97.2783L148.916 102.091L146.796 102.947L146.397 101.961L146.342 101.983C146.313 102.274 146.233 102.542 146.104 102.787C145.977 103.031 145.798 103.248 145.568 103.438C145.34 103.627 145.062 103.787 144.733 103.92ZM144.833 102.164C145.076 102.066 145.274 101.929 145.428 101.752C145.585 101.574 145.687 101.376 145.734 101.156C145.78 100.934 145.757 100.708 145.664 100.477L145.392 99.8041C145.341 99.864 145.275 99.9264 145.194 99.9913C145.116 100.055 145.028 100.121 144.931 100.189C144.833 100.257 144.731 100.323 144.625 100.387C144.518 100.452 144.416 100.513 144.318 100.57C144.12 100.69 143.959 100.815 143.837 100.947C143.718 101.077 143.642 101.215 143.608 101.361C143.576 101.503 143.591 101.651 143.653 101.804C143.747 102.038 143.902 102.183 144.118 102.238C144.337 102.293 144.575 102.268 144.833 102.164ZM147.434 94.4535L149.688 93.5428L152.668 100.918C152.904 101.502 152.971 102.014 152.871 102.456C152.773 102.895 152.538 103.278 152.166 103.604C151.793 103.929 151.312 104.211 150.722 104.45C150.642 104.482 150.566 104.511 150.494 104.536C150.422 104.562 150.344 104.59 150.26 104.62L149.569 102.91C149.627 102.894 149.678 102.879 149.722 102.864C149.766 102.85 149.81 102.834 149.853 102.817C150.163 102.691 150.355 102.546 150.428 102.381C150.501 102.219 150.491 102.019 150.395 101.783L147.434 94.4535ZM148.225 93.174C147.909 93.3019 147.594 93.3073 147.283 93.1902C146.97 93.07 146.753 92.8609 146.632 92.5628C146.513 92.2678 146.525 91.9699 146.668 91.669C146.81 91.3651 147.039 91.1492 147.355 91.0213C147.675 90.8922 147.99 90.8883 148.3 91.0097C148.612 91.1268 148.827 91.3329 148.946 91.6279C149.067 91.926 149.056 92.227 148.914 92.5309C148.775 92.8305 148.545 93.0449 148.225 93.174ZM156.028 99.3569C155.576 99.5394 155.144 99.6262 154.733 99.6171C154.324 99.6038 153.956 99.4844 153.629 99.259C153.304 99.0294 153.047 98.681 152.858 98.2139C152.699 97.8205 152.634 97.4607 152.663 97.1344C152.692 96.8081 152.794 96.5114 152.968 96.2443C153.143 95.9772 153.371 95.7367 153.653 95.5227C153.933 95.3057 154.247 95.1092 154.594 94.9332C154.982 94.7337 155.291 94.5643 155.52 94.425C155.749 94.2827 155.903 94.1508 155.982 94.0292C156.064 93.9034 156.075 93.7683 156.017 93.6238L156.008 93.6008C155.912 93.3642 155.757 93.2142 155.542 93.1509C155.327 93.0877 155.081 93.1119 154.804 93.2237C154.506 93.3441 154.293 93.5055 154.163 93.7078C154.034 93.9101 153.991 94.1349 154.034 94.3822L151.925 95.1484C151.813 94.6933 151.816 94.2452 151.934 93.8042C152.055 93.3588 152.3 92.9486 152.67 92.5737C153.043 92.1945 153.545 91.8771 154.178 91.6213C154.63 91.4388 155.068 91.3243 155.493 91.2779C155.916 91.2285 156.31 91.248 156.675 91.3366C157.038 91.4221 157.356 91.5798 157.627 91.8097C157.902 92.0383 158.115 92.3401 158.266 92.715L160.211 97.5274L158.09 98.3841L157.692 97.3976L157.636 97.42C157.607 97.7106 157.528 97.9786 157.398 98.224C157.272 98.4682 157.093 98.6851 156.862 98.8749C156.635 99.0634 156.356 99.2241 156.028 99.3569ZM156.128 97.6006C156.37 97.5025 156.569 97.3652 156.723 97.1887C156.88 97.0109 156.982 96.8123 157.029 96.593C157.075 96.3707 157.051 96.1443 156.958 95.9138L156.686 95.2408C156.635 95.3007 156.57 95.3631 156.489 95.428C156.411 95.4916 156.323 95.5575 156.225 95.6255C156.128 95.6936 156.026 95.7598 155.919 95.8242C155.813 95.8885 155.711 95.9495 155.613 96.0071C155.414 96.1266 155.254 96.2521 155.132 96.3836C155.013 96.5139 154.937 96.652 154.903 96.798C154.87 96.9397 154.885 97.0873 154.948 97.241C155.042 97.4745 155.197 97.6192 155.412 97.6751C155.631 97.7297 155.87 97.7049 156.128 97.6006ZM161.589 96.9705L158.728 89.8902L160.918 89.0056L161.439 90.2963L161.513 90.2665C161.454 89.7472 161.524 89.3149 161.724 88.9695C161.923 88.6211 162.216 88.3687 162.603 88.2122C162.707 88.17 162.818 88.1343 162.935 88.1049C163.05 88.0725 163.161 88.0509 163.268 88.0401L164.059 89.9991C163.937 90.0057 163.784 90.0336 163.6 90.0829C163.419 90.1309 163.261 90.1822 163.126 90.2369C162.859 90.3449 162.642 90.5023 162.475 90.709C162.31 90.9115 162.209 91.1436 162.172 91.4053C162.136 91.6627 162.176 91.9327 162.29 92.2154L163.843 96.0598L161.589 96.9705ZM173.205 92.4329C172.464 92.7321 171.766 92.8444 171.111 92.7697C170.457 92.6907 169.875 92.4376 169.367 92.0104C168.86 91.5789 168.454 90.9867 168.15 90.2338C167.855 89.5024 167.741 88.8048 167.809 88.1411C167.875 87.4743 168.11 86.8827 168.513 86.3661C168.914 85.8465 169.471 85.4427 170.184 85.1546C170.688 84.951 171.181 84.8431 171.662 84.831C172.143 84.8189 172.598 84.905 173.026 85.0894C173.455 85.2738 173.845 85.5577 174.196 85.9411C174.546 86.3215 174.839 86.8021 175.074 87.3829L175.301 87.9453L169.147 90.4316L168.618 89.1224L172.675 87.4835C172.575 87.2451 172.432 87.0545 172.245 86.9117C172.059 86.769 171.848 86.6844 171.612 86.6582C171.378 86.6276 171.136 86.6626 170.888 86.7632C170.636 86.865 170.433 87.0131 170.279 87.2075C170.124 87.3988 170.027 87.6149 169.988 87.8557C169.949 88.0934 169.975 88.3349 170.067 88.5801L170.605 89.9123C170.722 90.2012 170.881 90.4317 171.083 90.604C171.283 90.7731 171.512 90.8754 171.77 90.9109C172.027 90.9463 172.3 90.9056 172.589 90.7889C172.789 90.7082 172.959 90.6073 173.099 90.4862C173.24 90.3651 173.347 90.2271 173.42 90.0724C173.494 89.9177 173.528 89.7501 173.523 89.5698L175.617 88.7935C175.718 89.2923 175.692 89.7728 175.54 90.2349C175.389 90.6927 175.116 91.1119 174.723 91.4924C174.329 91.8698 173.823 92.1833 173.205 92.4329ZM178.285 85.5277L179.917 89.5657L177.663 90.4764L174.802 83.3961L176.945 82.53L177.471 83.8299L177.549 83.7983C177.531 83.3017 177.661 82.8541 177.939 82.4555C178.217 82.0539 178.617 81.7475 179.139 81.5365C179.637 81.3353 180.114 81.273 180.57 81.3496C181.029 81.4219 181.44 81.6168 181.804 81.9344C182.17 82.2476 182.459 82.6706 182.671 83.2035L184.494 87.7163L182.24 88.627L180.595 84.5568C180.44 84.1622 180.216 83.8952 179.923 83.7559C179.634 83.6153 179.311 83.6171 178.955 83.7611C178.718 83.8567 178.53 83.9934 178.391 84.1711C178.254 84.3445 178.175 84.5464 178.153 84.7766C178.135 85.0057 178.179 85.256 178.285 85.5277ZM192.042 84.8222C191.301 85.1214 190.603 85.2337 189.948 85.159C189.294 85.0801 188.712 84.827 188.204 84.3998C187.697 83.9682 187.291 83.376 186.987 82.6231C186.692 81.8917 186.578 81.1942 186.646 80.5305C186.712 79.8637 186.947 79.272 187.35 78.7555C187.751 78.2358 188.308 77.832 189.021 77.544C189.525 77.3403 190.018 77.2325 190.499 77.2203C190.98 77.2082 191.435 77.2943 191.863 77.4787C192.292 77.6631 192.682 77.947 193.033 78.3305C193.384 78.7108 193.676 79.1914 193.911 79.7722L194.138 80.3346L187.984 82.8209L187.455 81.5118L191.512 79.8729C191.412 79.6344 191.269 79.4438 191.082 79.3011C190.896 79.1583 190.685 79.0738 190.449 79.0475C190.215 79.0169 189.973 79.0519 189.725 79.1525C189.473 79.2543 189.27 79.4024 189.116 79.5968C188.961 79.7882 188.864 80.0042 188.825 80.245C188.786 80.4827 188.812 80.7242 188.904 80.9695L189.442 82.3016C189.559 82.5905 189.718 82.8211 189.92 82.9933C190.12 83.1625 190.349 83.2648 190.607 83.3002C190.864 83.3356 191.137 83.295 191.426 83.1783C191.626 83.0976 191.796 82.9966 191.937 82.8755C192.077 82.7544 192.184 82.6165 192.257 82.4617C192.331 82.307 192.365 82.1395 192.36 81.9592L194.454 81.1829C194.555 81.6817 194.53 82.1621 194.377 82.6243C194.226 83.0821 193.953 83.5012 193.56 83.8817C193.166 84.2592 192.66 84.5726 192.042 84.8222ZM202.196 83.6528L200.659 79.8499L200.613 79.8686C200.606 80.1252 200.553 80.3842 200.455 80.6455C200.357 80.9068 200.199 81.1493 199.982 81.3728C199.768 81.5951 199.483 81.7783 199.127 81.9223C198.604 82.1334 198.075 82.19 197.538 82.0922C197.002 81.9943 196.497 81.7265 196.023 81.2887C195.55 80.8509 195.151 80.2309 194.827 79.4289C194.49 78.5961 194.346 77.8574 194.393 77.2128C194.44 76.5683 194.625 76.0306 194.948 75.5999C195.273 75.168 195.684 74.852 196.179 74.6521C196.55 74.5019 196.895 74.4379 197.211 74.4602C197.526 74.4794 197.81 74.5542 198.063 74.6844C198.316 74.8146 198.53 74.9693 198.706 75.1484L198.775 75.1204L198.286 73.9081L200.517 73.0067L204.45 82.7421L202.196 83.6528ZM199.201 79.8495C199.474 79.739 199.677 79.5678 199.808 79.3359C199.939 79.101 199.999 78.821 199.989 78.4961C199.979 78.1711 199.897 77.8181 199.743 77.4371C199.587 77.0499 199.4 76.7376 199.183 76.5001C198.968 76.2615 198.732 76.1066 198.475 76.0354C198.22 75.9631 197.956 75.9822 197.683 76.0927C197.403 76.2056 197.198 76.3781 197.066 76.6099C196.935 76.8418 196.875 77.1181 196.886 77.4387C196.901 77.7581 196.985 78.1083 197.139 78.4893C197.293 78.8704 197.478 79.1818 197.693 79.4236C197.909 79.6653 198.144 79.826 198.398 79.9058C198.653 79.9812 198.921 79.9624 199.201 79.8495ZM208.136 74.6093L206.51 70.5851L208.76 69.6763L211.62 76.7566L209.472 77.6245L208.94 76.3061L208.866 76.3359C208.884 76.8326 208.756 77.2848 208.481 77.6925C208.208 78.096 207.805 78.4051 207.274 78.6199C206.791 78.8149 206.323 78.8756 205.867 78.8021C205.412 78.7285 205.003 78.5346 204.64 78.2201C204.276 77.9025 203.984 77.477 203.765 76.9435L201.942 72.4308L204.196 71.5201L205.841 75.5903C205.999 75.9732 206.223 76.2349 206.512 76.3755C206.801 76.516 207.118 76.5168 207.462 76.3777C207.686 76.2871 207.867 76.1566 208.006 75.9863C208.146 75.8116 208.23 75.6079 208.258 75.3751C208.287 75.1381 208.247 74.8828 208.136 74.6093ZM213.055 76.1769L210.194 69.0966L212.448 68.1859L215.309 75.2662L213.055 76.1769ZM210.99 67.8152C210.674 67.9431 210.36 67.9485 210.048 67.8314C209.735 67.7113 209.518 67.5021 209.398 67.204C209.278 66.909 209.29 66.6111 209.433 66.3103C209.575 66.0063 209.804 65.7904 210.121 65.6625C210.44 65.5334 210.755 65.5296 211.065 65.651C211.377 65.7681 211.592 65.9741 211.712 66.2691C211.832 66.5672 211.821 66.8682 211.68 67.1721C211.54 67.4717 211.31 67.6861 210.99 67.8152ZM217.817 77.3417L213.883 67.6062L216.114 66.7048L216.604 67.9172L216.673 67.8892C216.678 67.6369 216.725 67.3767 216.814 67.1086C216.905 66.8394 217.057 66.5883 217.271 66.3556C217.486 66.1185 217.779 65.9248 218.151 65.7746C218.643 65.5759 219.155 65.5194 219.686 65.6049C220.22 65.6892 220.729 65.9469 221.21 66.3779C221.692 66.8089 222.101 67.4408 222.437 68.2736C222.761 69.0757 222.905 69.7987 222.868 70.4426C222.835 71.0852 222.658 71.6287 222.337 72.073C222.019 72.516 221.599 72.843 221.076 73.0541C220.72 73.1981 220.387 73.2645 220.079 73.2533C219.771 73.242 219.489 73.1771 219.234 73.0586C218.981 72.9389 218.764 72.7891 218.58 72.6094L218.534 72.6281L220.071 76.431L217.817 77.3417ZM217.521 70.2543C217.675 70.6354 217.86 70.9468 218.076 71.1885C218.295 71.429 218.532 71.5885 218.789 71.667C219.048 71.7412 219.314 71.7231 219.588 71.6126C219.864 71.5008 220.068 71.329 220.2 71.0972C220.33 70.8622 220.387 70.5835 220.371 70.2611C220.359 69.9374 220.275 69.585 220.121 69.2039C219.967 68.8229 219.783 68.513 219.569 68.2743C219.357 68.0344 219.124 67.8767 218.868 67.8013C218.616 67.7246 218.349 67.7428 218.07 67.8558C217.793 67.9675 217.589 68.1378 217.456 68.3666C217.323 68.5954 217.261 68.8707 217.269 69.1926C217.281 69.5132 217.365 69.8671 217.521 70.2543ZM228.406 70.1303C227.662 70.4307 226.962 70.5369 226.304 70.4487C225.648 70.3562 225.065 70.0948 224.555 69.6645C224.047 69.2299 223.647 68.6499 223.354 67.9247C223.06 67.1964 222.945 66.501 223.01 65.8385C223.076 65.1717 223.314 64.5788 223.723 64.0598C224.133 63.5365 224.71 63.1246 225.454 62.8241C226.198 62.5236 226.897 62.4196 227.553 62.5122C228.211 62.6003 228.794 62.8617 229.302 63.2964C229.812 63.7267 230.214 64.306 230.508 65.0343C230.801 65.7595 230.914 66.4555 230.847 67.1223C230.783 67.7848 230.545 68.3777 230.134 68.901C229.726 69.4201 229.15 69.8298 228.406 70.1303ZM227.732 68.4237C228.003 68.3145 228.198 68.139 228.319 67.8973C228.439 67.6557 228.489 67.3674 228.468 67.0327C228.45 66.6967 228.363 66.3351 228.207 65.9479C228.048 65.5546 227.858 65.2309 227.637 64.9768C227.42 64.7215 227.184 64.5488 226.929 64.4586C226.675 64.3684 226.412 64.3779 226.142 64.4872C225.862 64.6002 225.659 64.7787 225.533 65.0229C225.409 65.2658 225.356 65.5553 225.374 65.8913C225.395 66.226 225.485 66.59 225.644 66.9834C225.8 67.3706 225.987 67.6918 226.205 67.9471C226.425 68.2012 226.664 68.3727 226.922 68.4616C227.183 68.5494 227.453 68.5367 227.732 68.4237Z" fill="#774F1C"/>
</g>
<defs>
<filter id="filter0_d_213_894" x="0.615623" y="0.986534" width="340.316" height="265.607" filterUnits="userSpaceOnUse" color-interpolation-filters="sRGB">
<feFlood flood-opacity="0" result="BackgroundImageFix"/>
<feColorMatrix in="SourceAlpha" type="matrix" values="0 0 0 0 0 0 0 0 0 0 0 0 0 0 0 0 0 0 127 0" result="hardAlpha"/>
<feOffset dy="44"/>
<feGaussianBlur stdDeviation="39.2"/>
<feComposite in2="hardAlpha" operator="out"/>
<feColorMatrix type="matrix" values="0 0 0 0 0 0 0 0 0 0 0 0 0 0 0 0 0 0 0.25 0"/>
<feBlend mode="normal" in2="BackgroundImageFix" result="effect1_dropShadow_213_894"/>
<feBlend mode="normal" in="SourceGraphic" in2="effect1_dropShadow_213_894" result="shape"/>
</filter>
</defs>
</svg>
