<svg width="518" height="602" viewBox="0 0 518 602" fill="none" xmlns="http://www.w3.org/2000/svg">
  <g clip-path="url(#clip0_413_1475)">
    <path d="M9.83301 375.931C48.5823 351.321 157.128 317.838 201.777 408.678C246.426 499.518 239.234 532.864 383.583 575.39H9.83301V375.931Z" fill="#0099FF"/>
    <path d="M630.246 32.1615C630.246 99.313 571.559 198.672 508.658 153.75C514.059 163.932 508.658 39.349 388.277 9.40113C371.018 -69.0813 563.252 13.1529 508.658 -89.427C575.809 -89.427 630.246 -34.99 630.246 32.1615Z" fill="#0099FF"/>
    <g clip-path="url(#clip1_413_1475)">
      <path d="M68.627 524.769V520.546L81.2623 510.452L68.7345 510.523V506.872H86.2731V511.096L73.6378 521.19L86.5241 521.119V524.769H68.627Z" fill="#33FFD1"/>
      <path d="M88.8506 506.872H93.1098V524.77H88.8506V506.872Z" fill="#33FFD1"/>
      <path d="M106.283 521.619C110.113 521.619 112.332 519.436 112.332 515.821C112.332 512.205 110.077 510.022 106.283 510.022C102.561 510.022 100.269 512.42 100.269 515.821C100.269 519.221 102.561 521.619 106.283 521.619ZM96.1172 531.212V506.872H100.055L100.305 509.413H100.627C101.988 507.624 104.314 506.371 107.357 506.371C112.726 506.371 116.699 510.237 116.699 515.821C116.699 521.405 112.726 525.27 107.357 525.27C104.314 525.27 102.024 524.018 100.699 522.228H100.377V531.212H96.1172Z" fill="#33FFD1"/>
      <path d="M129.262 521.619C133.092 521.619 135.311 519.436 135.311 515.821C135.311 512.205 133.057 510.022 129.262 510.022C125.54 510.022 123.249 512.42 123.249 515.821C123.249 519.221 125.54 521.619 129.262 521.619ZM119.097 531.212V506.872H123.034L123.285 509.413H123.607C124.967 507.624 127.294 506.371 130.336 506.371C135.705 506.371 139.679 510.237 139.679 515.821C139.679 521.405 135.705 525.27 130.336 525.27C127.294 525.27 125.003 524.018 123.678 522.228H123.356V531.212H119.097Z" fill="#33FFD1"/>
      <path d="M156.466 506.872L150.489 521.226H150.059L143.974 506.872H139.214L147.355 524.495H150.411V527.572H142.042V531.212H147.446C149.701 531.212 150.417 530.675 151.312 528.671L161.191 506.872H156.466Z" fill="#33FFD1"/>
      <path d="M161.22 503.779H164.297V506.856H161.22V503.779Z" fill="#33FFD1"/>
      <path d="M88.8633 501.152H93.1415V504.229H88.8633V501.152Z" fill="#33FFD1"/>
    </g>
  </g>
  <defs>
    <clipPath id="clip0_413_1475">
      <rect x="29" y="10" width="460" height="543.287" rx="11.9792" fill="white"/>
    </clipPath>
    <clipPath id="clip1_413_1475">
      <rect width="95.8333" height="30.1566" fill="white" transform="translate(68.5312 501.146)"/>
    </clipPath>
  </defs>
</svg>
