<svg width="518" height="602" viewBox="0 0 518 602" fill="none" xmlns="http://www.w3.org/2000/svg">
<g filter="url(#filter0_d_59_239)">
<g clip-path="url(#clip0_59_239)">
<rect x="29" y="10" width="460" height="543.287" rx="11.9792" fill="#33FFD1"/>
<path d="M29 381.189C61.5545 359.99 152.747 331.149 190.259 409.397C227.77 487.645 221.728 516.369 343 553H29V381.189Z" fill="#0099FF"/>
<path d="M522.552 44C522.552 111.152 565.11 178.172 502.209 133.25C507.61 143.432 502.209 18.8489 381.829 -11.099C523.552 -37.5 494.052 50.5 500.551 -46C536.552 -22.5 522.552 -23.1515 522.552 44Z" fill="#0099FF"/>
<g clip-path="url(#clip1_59_239)">
<path d="M68.627 524.769V520.545L81.2623 510.452L68.7345 510.523V506.872H86.2731V511.096L73.6378 521.19L86.5241 521.118V524.769H68.627Z" fill="#33FFD1"/>
<path d="M88.8506 506.872H93.1098V524.77H88.8506V506.872Z" fill="#33FFD1"/>
<path d="M106.283 521.619C110.113 521.619 112.332 519.436 112.332 515.82C112.332 512.205 110.077 510.022 106.283 510.022C102.561 510.022 100.269 512.42 100.269 515.82C100.269 519.221 102.561 521.619 106.283 521.619ZM96.1172 531.212V506.872H100.055L100.305 509.413H100.627C101.988 507.624 104.314 506.371 107.357 506.371C112.726 506.371 116.699 510.237 116.699 515.82C116.699 521.405 112.726 525.27 107.357 525.27C104.314 525.27 102.024 524.017 100.699 522.228H100.377V531.212H96.1172Z" fill="#33FFD1"/>
<path d="M129.262 521.619C133.092 521.619 135.311 519.436 135.311 515.82C135.311 512.205 133.057 510.022 129.262 510.022C125.54 510.022 123.249 512.42 123.249 515.82C123.249 519.221 125.54 521.619 129.262 521.619ZM119.097 531.212V506.872H123.034L123.285 509.413H123.607C124.967 507.624 127.294 506.371 130.336 506.371C135.705 506.371 139.679 510.237 139.679 515.82C139.679 521.405 135.705 525.27 130.336 525.27C127.294 525.27 125.003 524.017 123.678 522.228H123.356V531.212H119.097Z" fill="#33FFD1"/>
<path d="M156.466 506.872L150.489 521.225H150.059L143.974 506.872H139.214L147.355 524.495H150.411V527.572H142.042V531.212H147.446C149.701 531.212 150.417 530.675 151.312 528.671L161.191 506.872H156.466Z" fill="#33FFD1"/>
<path d="M161.22 503.779H164.297V506.856H161.22V503.779Z" fill="#33FFD1"/>
<path d="M88.8633 501.152H93.1415V504.229H88.8633V501.152Z" fill="#33FFD1"/>
</g>
</g>
</g>
<defs>
<filter id="filter0_d_59_239" x="0.249998" y="0.416666" width="517.5" height="600.787" filterUnits="userSpaceOnUse" color-interpolation-filters="sRGB">
<feFlood flood-opacity="0" result="BackgroundImageFix"/>
<feColorMatrix in="SourceAlpha" type="matrix" values="0 0 0 0 0 0 0 0 0 0 0 0 0 0 0 0 0 0 127 0" result="hardAlpha"/>
<feOffset dy="19.1667"/>
<feGaussianBlur stdDeviation="14.375"/>
<feComposite in2="hardAlpha" operator="out"/>
<feColorMatrix type="matrix" values="0 0 0 0 0 0 0 0 0 0 0 0 0 0 0 0 0 0 0.2 0"/>
<feBlend mode="normal" in2="BackgroundImageFix" result="effect1_dropShadow_59_239"/>
<feBlend mode="normal" in="SourceGraphic" in2="effect1_dropShadow_59_239" result="shape"/>
</filter>
<clipPath id="clip0_59_239">
<rect x="29" y="10" width="460" height="543.287" rx="11.9792" fill="white"/>
</clipPath>
<clipPath id="clip1_59_239">
<rect width="95.8333" height="30.1566" fill="white" transform="translate(68.5312 501.146)"/>
</clipPath>
</defs>
</svg>
